HIERARCHY
ROOT Pelvis
{
	OFFSET 0.000000 0.000000 0.000000
	CHANNELS 6 Xposition Yposition Zposition Xrotation Yrotation Zrotation
	JOINT LeftUpLeg_virtual
	{
		OFFSET 0.000000 0.000000 0.000000
		CHANNELS 3 Xrotation Yrotation Zrotation
		JOINT LeftUpLeg
		{
			OFFSET 8.479700 -4.795502 -0.379100
			CHANNELS 3 Xrotation Yrotation Zrotation
			JOINT LeftLeg
			{
				OFFSET 0.024144 -32.555107 0.112900
				CHANNELS 3 Xrotation Yrotation Zrotation
				JOINT LeftFoot
				{
					OFFSET -0.024144 -32.638630 -3.012600
					CHANNELS 3 Xrotation Yrotation Zrotation
					JOINT LeftToeBase
					{
						OFFSET 0.970200 -13.225400 11.864200
						CHANNELS 3 Xrotation Yrotation Zrotation
						End Site
						{
							OFFSET 0 0 0
						}
					}
				}
			}
		}
	}
	JOINT RightUpLeg_virtual
	{
		OFFSET 0.000000 0.000000 0.000000
		CHANNELS 3 Xrotation Yrotation Zrotation
		JOINT RightUpLeg
		{
			OFFSET -8.479700 -4.795502 -0.379100
			CHANNELS 3 Xrotation Yrotation Zrotation
			JOINT RightLeg
			{
				OFFSET -0.023144 -32.555092 0.112900
				CHANNELS 3 Xrotation Yrotation Zrotation
				JOINT RightFoot
				{
					OFFSET 0.023144 -32.638641 -3.012700
					CHANNELS 3 Xrotation Yrotation Zrotation
					JOINT RightToeBase
					{
						OFFSET -0.970200 -13.225400 11.864200
						CHANNELS 3 Xrotation Yrotation Zrotation
						End Site
						{
							OFFSET 0 0 0
						}
					}
				}
			}
		}
	}
	JOINT Hips_virtual
	{
		OFFSET 0.000000 0.000000 0.000000
		CHANNELS 3 Xrotation Yrotation Zrotation
		JOINT Hips
		{
			OFFSET -0.000000 -0.000000 -0.000000
			CHANNELS 3 Xrotation Yrotation Zrotation
			JOINT Spine
			{
				OFFSET 0.000000 7.722000 1.166200
				CHANNELS 3 Xrotation Yrotation Zrotation
				JOINT Spine1
				{
					OFFSET 0.000000 12.024101 0.248800
					CHANNELS 3 Xrotation Yrotation Zrotation
					JOINT Spine2
					{
						OFFSET 0.000000 11.502998 -0.491200
						CHANNELS 3 Xrotation Yrotation Zrotation
						JOINT Neck_virtual
						{
							OFFSET 0.000000 0.000000 0.000000
							CHANNELS 3 Xrotation Yrotation Zrotation
							JOINT Neck
							{
								OFFSET 0.000000 18.430702 -3.123100
								CHANNELS 3 Xrotation Yrotation Zrotation
								JOINT Head
								{
									OFFSET 0.000000 9.051102 1.034000
									CHANNELS 3 Xrotation Yrotation Zrotation
									End Site
									{
										OFFSET 0 0 0
									}
								}
							}
						}
						JOINT LeftShoulder_virtual
						{
							OFFSET 0.000000 0.000000 0.000000
							CHANNELS 3 Xrotation Yrotation Zrotation
							JOINT LeftShoulder
							{
								OFFSET 6.197800 13.665199 -4.064700
								CHANNELS 3 Xrotation Yrotation Zrotation
								JOINT LeftArm
								{
									OFFSET 7.778100 -0.187103 -1.709300
									CHANNELS 3 Xrotation Yrotation Zrotation
									JOINT LeftForeArm
									{
										OFFSET 22.049376 0.000000 0.000000
										CHANNELS 3 Xrotation Yrotation Zrotation
										JOINT LeftHand
										{
											OFFSET 23.009392 0.000000 0.000000
											CHANNELS 3 Xrotation Yrotation Zrotation
											End Site
											{
												OFFSET 0 0 0
											}
										}
									}
								}
							}
						}
						JOINT RightShoulder_virtual
						{
							OFFSET 0.000000 0.000000 0.000000
							CHANNELS 3 Xrotation Yrotation Zrotation
							JOINT RightShoulder
							{
								OFFSET -6.197800 13.665199 -4.064700
								CHANNELS 3 Xrotation Yrotation Zrotation
								JOINT RightArm
								{
									OFFSET -7.778100 -0.187103 -1.709300
									CHANNELS 3 Xrotation Yrotation Zrotation
									JOINT RightForeArm
									{
										OFFSET -22.049376 0.000000 0.000000
										CHANNELS 3 Xrotation Yrotation Zrotation
										JOINT RightHand
										{
											OFFSET -23.009392 0.000000 0.000000
											CHANNELS 3 Xrotation Yrotation Zrotation
											End Site
											{
												OFFSET 0 0 0
											}
										}
									}
								}
							}
						}
					}
				}
			}
		}
	}
}
MOTION
Frames: 10
Frame Time: 0.03333333
-0.832299 79.675812 0.636337 0.000000 0.000000 0.000000 5.025870 -14.003573 10.183551 -27.216299 -8.850278 -13.009228 14.268380 -5.216327 -6.835428 9.326189 -27.873167 7.090247 0.000000 0.000000 0.000000 5.025870 -14.003573 10.183551 -0.053399 -15.022801 -13.158457 30.186776 6.035002 -4.778008 -4.655349 -0.773578 8.799598 0.000000 0.000000 0.000000 5.025870 -14.003573 10.183551 0.000000 0.000000 0.000000 1.779929 4.621443 0.542698 5.177706 9.319221 2.133656 0.000000 0.000000 0.000000 5.034874 9.321730 2.400944 -1.845152 -1.005205 -1.922206 0.000000 0.000000 0.000000 5.034874 9.321730 2.400944 0.683994 -0.873506 -14.226762 -18.744839 -25.288451 -72.307729 -0.000004 -68.920700 -0.000009 0.000000 0.000000 0.000000 5.034874 9.321730 2.400944 -0.133327 13.109085 18.148149 -38.704961 64.841411 69.860281 0.000008 37.971443 -0.000001 0.000000 0.000000 0.000000 
-0.815262 79.664932 0.638311 0.000000 0.000000 0.000000 5.079058 -14.075187 9.972790 -27.375875 -8.643912 -12.709672 14.653565 -5.429589 -6.961916 9.203735 -27.875237 7.216790 0.000000 0.000000 0.000000 5.079058 -14.075187 9.972790 0.362620 -15.104362 -12.909596 29.575392 6.177612 -4.637629 -5.018891 -0.781023 8.637240 0.000000 0.000000 0.000000 5.079058 -14.075187 9.972790 0.000000 0.000001 0.000000 1.842056 4.719118 0.597889 5.160750 9.282536 2.112637 0.000000 0.000000 0.000000 5.022811 9.284443 2.374296 -2.064541 -1.057514 -1.877888 0.000000 0.000000 0.000000 5.022811 9.284443 2.374296 0.681854 -0.881333 -14.238710 -18.870674 -25.494067 -72.321827 -0.000009 -68.978053 -0.000022 0.000000 0.000000 0.000000 5.022811 9.284443 2.374296 -0.124891 13.084223 18.116892 -38.677961 64.587683 69.785054 -0.000015 38.471590 0.000013 0.000000 0.000000 0.000000 
-0.799028 79.654930 0.638136 0.000000 0.000000 0.000000 5.136002 -14.144461 9.759322 -27.540701 -8.459694 -12.409421 15.025883 -5.625856 -7.082823 9.085993 -27.877861 7.335773 0.000000 0.000000 0.000000 5.136002 -14.144461 9.759322 0.809802 -15.183910 -12.646088 28.911033 6.343677 -4.490703 -5.384417 -0.811815 8.466171 0.000000 0.000000 0.000000 5.136002 -14.144461 9.759322 0.000000 0.000001 0.000000 1.902270 4.821725 0.662705 5.142805 9.248733 2.093732 0.000000 0.000000 0.000000 5.009905 9.249995 2.349699 -2.293333 -1.110689 -1.843281 0.000000 0.000000 0.000000 5.009905 9.249995 2.349699 0.679168 -0.891285 -14.251474 -19.028040 -25.737573 -72.345951 0.000005 -69.038698 -0.000004 0.000000 0.000000 0.000000 5.009905 9.249995 2.349699 -0.114677 13.054877 18.076917 -38.651849 64.286376 69.702873 -0.000005 39.069693 0.000004 0.000000 0.000000 0.000000 
-0.783380 79.645729 0.636242 0.000000 0.000000 0.000000 5.195726 -14.212054 9.544168 -27.706054 -8.296348 -12.101808 15.378239 -5.807158 -7.214484 8.980845 -27.880171 7.457405 0.000000 0.000000 0.000000 5.195726 -14.212054 9.544168 1.279691 -15.252774 -12.381609 28.204571 6.524328 -4.318177 -5.740071 -0.859429 8.282631 0.000000 0.000000 0.000000 5.195726 -14.212054 9.544168 0.000000 -0.000001 0.000000 1.960738 4.928707 0.735661 5.123978 9.217474 2.076672 0.000000 0.000000 0.000000 4.996253 9.218045 2.326917 -2.529572 -1.164597 -1.816356 0.000000 0.000000 0.000000 4.996253 9.218045 2.326917 0.676449 -0.901440 -14.262930 -19.187209 -25.974202 -72.374925 -0.000017 -69.092705 -0.000029 0.000000 0.000000 0.000000 4.996253 9.218045 2.326917 -0.104593 13.026399 18.035934 -38.631007 63.992889 69.627898 -0.000009 39.655382 0.000012 0.000000 0.000000 0.000000 
-0.768138 79.637085 0.633474 0.000000 0.000000 0.000000 5.257237 -14.278589 9.327229 -27.878039 -8.150175 -11.806700 15.731056 -5.971648 -7.320795 8.868769 -27.884384 7.563030 0.000000 0.000000 0.000000 5.257237 -14.278589 9.327229 1.772712 -15.328382 -12.099100 27.453558 6.719609 -4.161064 -6.083133 -0.918691 8.104523 0.000000 0.000000 0.000000 5.257237 -14.278589 9.327229 0.000000 0.000000 0.000001 2.017535 5.039484 0.816440 5.104400 9.188401 2.061217 0.000000 0.000000 0.000000 4.981970 9.188255 2.305710 -2.771692 -1.219057 -1.795573 0.000000 0.000000 0.000000 4.981970 9.188255 2.305710 0.673632 -0.911968 -14.273168 -19.350583 -26.206746 -72.409718 -0.000029 -69.140229 -0.000009 0.000000 0.000000 0.000000 4.981970 9.188255 2.305710 -0.094517 12.998460 17.993312 -38.614918 63.703644 69.559316 0.000001 40.235883 0.000010 0.000000 0.000000 0.000000 
-0.753070 79.628967 0.630436 0.000000 0.000000 0.000000 5.319538 -14.344709 9.109046 -28.052777 -8.022096 -11.518970 16.078677 -6.119230 -7.414923 8.755860 -27.889500 7.660791 0.000000 0.000000 0.000000 5.319538 -14.344709 9.109046 2.287427 -15.408075 -11.811215 26.658619 6.927326 -3.999684 -6.409879 -0.983078 7.924455 0.000000 0.000000 0.000000 5.319538 -14.344709 9.109046 0.000000 -0.000001 0.000001 2.072798 5.153478 0.904035 5.084191 9.161172 2.047111 0.000000 0.000000 0.000000 4.967148 9.160285 2.285806 -3.017918 -1.273913 -1.778884 0.000000 0.000000 0.000000 4.967148 9.160285 2.285806 0.670714 -0.922949 -14.282417 -19.519948 -26.438160 -72.450617 0.000008 -69.182494 0.000008 0.000000 0.000000 0.000000 4.967148 9.160285 2.285806 -0.084330 12.970674 17.948704 -38.602979 63.415069 69.495754 -0.000007 40.818310 -0.000000 0.000000 0.000000 0.000000 
-0.737972 79.621330 0.627758 0.000000 0.000000 0.000000 5.381644 -14.411059 8.890014 -28.229172 -7.910495 -11.240989 16.423350 -6.250207 -7.493757 8.639884 -27.895606 7.749543 0.000000 0.000000 0.000000 5.381644 -14.411059 8.890014 2.821713 -15.491702 -11.518405 25.822994 7.141292 -3.837601 -6.715254 -1.047018 7.746620 0.000000 0.000000 0.000000 5.381644 -14.411059 8.890014 0.000000 -0.000003 0.000000 2.126673 5.270157 0.997644 5.063471 9.135445 2.034099 0.000000 0.000000 0.000000 4.951893 9.133790 2.266984 -3.266402 -1.329000 -1.764605 0.000000 0.000000 0.000000 4.951893 9.133790 2.266984 0.667688 -0.934399 -14.290969 -19.695983 -26.670574 -72.497342 0.000026 -69.220887 0.000027 0.000000 0.000000 0.000000 4.951893 9.133790 2.266984 -0.073976 12.942805 17.902079 -38.594148 63.124560 69.435478 -0.000023 41.407387 0.000022 0.000000 0.000000 0.000000 
-0.722633 79.613777 0.626078 0.000000 0.000000 0.000000 5.442571 -14.478370 8.670303 -28.407769 -7.812826 -10.976194 16.771130 -6.365141 -7.552910 8.516858 -27.903064 7.828356 0.000000 0.000000 0.000000 5.442571 -14.478370 8.670303 3.371808 -15.577377 -11.220531 24.953866 7.353980 -3.679447 -6.994476 -1.105101 7.576042 0.000000 0.000000 0.000000 5.442571 -14.478370 8.670303 0.000000 -0.000001 0.000000 2.179275 5.389054 1.096660 5.042359 9.110874 2.021937 0.000000 0.000000 0.000000 4.936304 9.108431 2.248977 -3.515398 -1.384138 -1.750965 0.000000 0.000000 0.000000 4.936304 9.108431 2.248977 0.664558 -0.946246 -14.299082 -19.878234 -26.904921 -72.549136 0.000022 -69.256861 0.000033 0.000000 0.000000 0.000000 4.936304 9.108431 2.248977 -0.063464 12.914714 17.853744 -38.587990 62.830842 69.377483 -0.000017 42.004598 0.000030 0.000000 0.000000 0.000000 
-0.706849 79.605194 0.626078 0.000000 0.000000 0.000000 5.501377 -14.547664 8.449210 -28.593257 -7.728285 -10.727734 17.135345 -6.462383 -7.588755 8.379741 -27.912675 7.897019 0.000000 0.000000 0.000000 5.501377 -14.547664 8.449210 3.931098 -15.660343 -10.919254 24.065043 7.556918 -3.525687 -7.245308 -1.151933 7.415874 0.000000 0.000000 0.000000 5.501377 -14.547664 8.449210 0.000000 0.000001 0.000000 2.230646 5.510071 1.201304 5.020960 9.087110 2.010358 0.000000 0.000000 0.000000 4.920473 9.083868 2.231554 -3.763241 -1.439164 -1.736100 0.000000 0.000000 0.000000 4.920473 9.083868 2.231554 0.661355 -0.958358 -14.306927 -20.065417 -27.141027 -72.605000 0.000055 -69.291381 0.000046 0.000000 0.000000 0.000000 4.920473 9.083868 2.231554 -0.052848 12.886442 17.804254 -38.583800 62.534275 69.320874 -0.000022 42.608564 0.000029 0.000000 0.000000 0.000000 
-0.690428 79.596657 0.627829 0.000000 0.000000 0.000000 5.556995 -14.619134 8.230036 -28.779740 -7.665975 -10.496086 17.502022 -6.532845 -7.603801 8.233155 -27.924071 7.951740 0.000000 0.000000 0.000000 5.556995 -14.619134 8.230036 4.492385 -15.741477 -10.621609 23.165112 7.745951 -3.375884 -7.461014 -1.181793 7.268426 0.000000 0.000000 0.000000 5.556995 -14.619134 8.230036 0.000000 0.000000 0.000001 2.281235 5.632151 1.307843 4.999400 9.063805 1.999119 0.000000 0.000000 0.000000 4.904500 9.059759 2.214463 -4.008054 -1.493919 -1.718202 0.000000 0.000000 0.000000 4.904500 9.059759 2.214463 0.658127 -0.970594 -14.314618 -20.255921 -27.378076 -72.663978 -0.000025 -69.325450 -0.000015 0.000000 0.000000 0.000000 4.904500 9.059759 2.214463 -0.042205 12.858108 17.754233 -38.581129 62.235844 69.265133 0.000030 43.216345 -0.000020 0.000000 0.000000 0.000000 
